HIERARCHY
ROOT Hips
{
  OFFSET 352.181 89.6817 215.948
  CHANNELS 6 Xposition Yposition Zposition Zrotation Xrotation Yrotation
  JOINT RightUpLeg
  {
    OFFSET -9.28908 -1.54242 -0.003762
    CHANNELS 3 Zrotation Xrotation Yrotation
    JOINT RightLeg
    {
      OFFSET 0.175992 -41.9066 0.16442
      CHANNELS 3 Zrotation Xrotation Yrotation
      JOINT RightFoot
      {
        OFFSET -0.850518 -41.676 1.19357
        CHANNELS 3 Zrotation Xrotation Yrotation
        End Site
        {
          OFFSET 0 -7.69 17.5
        }
      }
    }
  }
  JOINT LeftUpLeg
  {
    OFFSET 9.35911 -1.62184 0.0934226
    CHANNELS 3 Zrotation Xrotation Yrotation
    JOINT LeftLeg
    {
      OFFSET 0.11037 -41.8771 -4.76722e-05
      CHANNELS 3 Zrotation Xrotation Yrotation
      JOINT LeftFoot
      {
        OFFSET 0.784832 -42.2153 -2.4698
        CHANNELS 3 Zrotation Xrotation Yrotation
        End Site
        {
          OFFSET 0 -7.69 17.5
        }
      }
    }
  }
  JOINT Spine
  {
    OFFSET -0.0264112 14.3118 0.141242
    CHANNELS 3 Zrotation Xrotation Yrotation
    JOINT Spine1
    {
      OFFSET -0.0608006 9.71827 0.0702426
      CHANNELS 3 Zrotation Xrotation Yrotation
      JOINT Spine2
      {
        OFFSET 0.040197 10.1251 -0.0199022
        CHANNELS 3 Zrotation Xrotation Yrotation
        JOINT Spine3
        {
          OFFSET -0.018884 9.71791 0.0127475
          CHANNELS 3 Zrotation Xrotation Yrotation
          JOINT Neck
          {
            OFFSET -0.169577 10.3664 -0.0885607
            CHANNELS 3 Zrotation Xrotation Yrotation
            JOINT Head
            {
              OFFSET -0.26372 9.48406 0.127016
              CHANNELS 3 Zrotation Xrotation Yrotation
              End Site
              {
                OFFSET 0 15.95 0
              }
            }
          }
          JOINT RightShoulder
          {
            OFFSET -3.21308 6.8767 -0.0450237
            CHANNELS 3 Zrotation Xrotation Yrotation
            JOINT RightArm
            {
              OFFSET -12.7762 -0.0188046 -0.0629949
              CHANNELS 3 Zrotation Xrotation Yrotation
              JOINT RightForeArm
              {
                OFFSET -26.5383 -0.000218244 -0.103623
                CHANNELS 3 Zrotation Xrotation Yrotation
                JOINT RightHand
                {
                  OFFSET -25.8669 -0.047899 -0.0603739
                  CHANNELS 3 Zrotation Xrotation Yrotation
                  JOINT RightHandThumb1
                  {
                    OFFSET -2.48905 0.190105 3.12053
                    CHANNELS 3 Zrotation Xrotation Yrotation
                    JOINT RightHandThumb2
                    {
                      OFFSET -3.68274 0 0
                      CHANNELS 3 Zrotation Xrotation Yrotation
                      JOINT RightHandThumb3
                      {
                        OFFSET -2.55832 0 0
                        CHANNELS 3 Zrotation Xrotation Yrotation
                        End Site
                        {
                          OFFSET -2.194 0 0
                        }
                      }
                    }
                  }
                  JOINT RightInHandIndex
                  {
                    OFFSET -3.22368 0.508421 1.97842
                    CHANNELS 3 Zrotation Xrotation Yrotation
                    JOINT RightHandIndex1
                    {
                      OFFSET -5.21684 -0.091368 0.999158
                      CHANNELS 3 Zrotation Xrotation Yrotation
                      JOINT RightHandIndex2
                      {
                        OFFSET -3.61937 0 0
                        CHANNELS 3 Zrotation Xrotation Yrotation
                        JOINT RightHandIndex3
                        {
                          OFFSET -2.0521 0 0
                          CHANNELS 3 Zrotation Xrotation Yrotation
                          End Site
                          {
                            OFFSET -1.805 0 0
                          }
                        }
                      }
                    }
                  }
                  JOINT RightInHandMiddle
                  {
                    OFFSET -3.38211 0.517263 0.756737
                    CHANNELS 3 Zrotation Xrotation Yrotation
                    JOINT RightHandMiddle1
                    {
                      OFFSET -5.17411 -0.084 0.313895
                      CHANNELS 3 Zrotation Xrotation Yrotation
                      JOINT RightHandMiddle2
                      {
                        OFFSET -3.94947 0 0
                        CHANNELS 3 Zrotation Xrotation Yrotation
                        JOINT RightHandMiddle3
                        {
                          OFFSET -2.47579 0 0
                          CHANNELS 3 Zrotation Xrotation Yrotation
                          End Site
                          {
                            OFFSET -1.975 0 0
                          }
                        }
                      }
                    }
                  }
                  JOINT RightInHandRing
                  {
                    OFFSET -3.36516 0.537895 -0.128947
                    CHANNELS 3 Zrotation Xrotation Yrotation
                    JOINT RightHandRing1
                    {
                      OFFSET -4.63474 -0.022105 -0.478947
                      CHANNELS 3 Zrotation Xrotation Yrotation
                      JOINT RightHandRing2
                      {
                        OFFSET -3.44238 0 0
                        CHANNELS 3 Zrotation Xrotation Yrotation
                        JOINT RightHandRing3
                        {
                          OFFSET -2.3881 0 0
                          CHANNELS 3 Zrotation Xrotation Yrotation
                          End Site
                          {
                            OFFSET -1.857 0 0
                          }
                        }
                      }
                    }
                  }
                  JOINT RightInHandPinky
                  {
                    OFFSET -3.16105 0.469368 -1.20179
                    CHANNELS 3 Zrotation Xrotation Yrotation
                    JOINT RightHandPinky1
                    {
                      OFFSET -4.14105 -0.022105 -1.09053
                      CHANNELS 3 Zrotation Xrotation Yrotation
                      JOINT RightHandPinky2
                      {
                        OFFSET -2.75653 0 0
                        CHANNELS 3 Zrotation Xrotation Yrotation
                        JOINT RightHandPinky3
                        {
                          OFFSET -1.74189 0 0
                          CHANNELS 3 Zrotation Xrotation Yrotation
                          End Site
                          {
                            OFFSET -1.645 0 0
                          }
                        }
                      }
                    }
                  }
                }
              }
            }
          }
          JOINT LeftShoulder
          {
            OFFSET 3.21013 6.92813 0.031381
            CHANNELS 3 Zrotation Xrotation Yrotation
            JOINT LeftArm
            {
              OFFSET 12.8361 0.00272676 -0.00293476
              CHANNELS 3 Zrotation Xrotation Yrotation
              JOINT LeftForeArm
              {
                OFFSET 26.5005 -0.02636 0.00399578
                CHANNELS 3 Zrotation Xrotation Yrotation
                JOINT LeftHand
                {
                  OFFSET 25.9821 -0.0367196 0.00246136
                  CHANNELS 3 Zrotation Xrotation Yrotation
                  JOINT LeftHandThumb1
                  {
                    OFFSET 2.48905 0.190105 3.12053
                    CHANNELS 3 Zrotation Xrotation Yrotation
                    JOINT LeftHandThumb2
                    {
                      OFFSET 3.68274 0 0
                      CHANNELS 3 Zrotation Xrotation Yrotation
                      JOINT LeftHandThumb3
                      {
                        OFFSET 2.55832 0 0
                        CHANNELS 3 Zrotation Xrotation Yrotation
                        End Site
                        {
                          OFFSET 2.194 0 0
                        }
                      }
                    }
                  }
                  JOINT LeftInHandIndex
                  {
                    OFFSET 3.22368 0.508421 1.97842
                    CHANNELS 3 Zrotation Xrotation Yrotation
                    JOINT LeftHandIndex1
                    {
                      OFFSET 5.21684 -0.091368 0.999158
                      CHANNELS 3 Zrotation Xrotation Yrotation
                      JOINT LeftHandIndex2
                      {
                        OFFSET 3.61937 0 0
                        CHANNELS 3 Zrotation Xrotation Yrotation
                        JOINT LeftHandIndex3
                        {
                          OFFSET 2.0521 0 0
                          CHANNELS 3 Zrotation Xrotation Yrotation
                          End Site
                          {
                            OFFSET 1.805 0 0
                          }
                        }
                      }
                    }
                  }
                  JOINT LeftInHandMiddle
                  {
                    OFFSET 3.38211 0.517263 0.756737
                    CHANNELS 3 Zrotation Xrotation Yrotation
                    JOINT LeftHandMiddle1
                    {
                      OFFSET 5.17411 -0.084 0.313895
                      CHANNELS 3 Zrotation Xrotation Yrotation
                      JOINT LeftHandMiddle2
                      {
                        OFFSET 3.94947 0 0
                        CHANNELS 3 Zrotation Xrotation Yrotation
                        JOINT LeftHandMiddle3
                        {
                          OFFSET 2.47579 0 0
                          CHANNELS 3 Zrotation Xrotation Yrotation
                          End Site
                          {
                            OFFSET 1.975 0 0
                          }
                        }
                      }
                    }
                  }
                  JOINT LeftInHandRing
                  {
                    OFFSET 3.36516 0.537895 -0.128947
                    CHANNELS 3 Zrotation Xrotation Yrotation
                    JOINT LeftHandRing1
                    {
                      OFFSET 4.63474 -0.022105 -0.478947
                      CHANNELS 3 Zrotation Xrotation Yrotation
                      JOINT LeftHandRing2
                      {
                        OFFSET 3.44238 0 0
                        CHANNELS 3 Zrotation Xrotation Yrotation
                        JOINT LeftHandRing3
                        {
                          OFFSET 2.3881 0 0
                          CHANNELS 3 Zrotation Xrotation Yrotation
                          End Site
                          {
                            OFFSET 1.857 0 0
                          }
                        }
                      }
                    }
                  }
                  JOINT LeftInHandPinky
                  {
                    OFFSET 3.16105 0.469368 -1.20179
                    CHANNELS 3 Zrotation Xrotation Yrotation
                    JOINT LeftHandPinky1
                    {
                      OFFSET 4.14105 -0.022105 -1.09053
                      CHANNELS 3 Zrotation Xrotation Yrotation
                      JOINT LeftHandPinky2
                      {
                        OFFSET 2.75653 0 0
                        CHANNELS 3 Zrotation Xrotation Yrotation
                        JOINT LeftHandPinky3
                        {
                          OFFSET 1.74189 0 0
                          CHANNELS 3 Zrotation Xrotation Yrotation
                          End Site
                          {
                            OFFSET 1.645 0 0
                          }
                        }
                      }
                    }
                  }
                }
              }
            }
          }
        }
      }
    }
  }
}
MOTION
Frames: 3
Frame Time: 0.00833333
3.000034840009045638e+02 7.106209426787973502e-04 1.260705100508140858e-02 1.403910812497933744e-02 -1.379701027716017346e-02 6.591431036917154429e-02 -8.412268254886279273e-02 -7.931720339536059428e-02 -1.064546938391968817e-01 5.724542627764262447e-03 2.439342286831701345e-02 1.306724051848353815e-02 1.639140316519959958e-04 3.190034676673718372e-02 6.017980862438225553e-02 -6.466850438909167720e-02 -7.000905260987949630e-02 -5.983950245589367278e-02 -2.671347817669321705e-03 -2.136600249145794057e-03 3.809665865091649978e-02 2.440849964563425803e-02 -9.568759004761968195e-03 -1.691270634950320373e-02 2.065292529948637226e-02 -5.685365757572965681e-03 -4.411968956940033604e-02 5.631270751875627582e-03 1.501977250253868018e-03 -1.169580873442424736e-02 9.176594005468019857e-03 -1.759087433153745401e-03 -1.706921281393064885e-02 -7.074846971290802431e-04 -1.320150928748048055e-03 9.599802238928527515e-04 -2.372515051266701341e-03 -1.995744427282026418e-02 2.106115947436520280e-02 -4.541270342837595148e-02 3.599506097834906382e-02 7.270808282869209958e-03 -2.691244269103746853e-02 -2.282817606409852720e-02 -2.508735957895990021e-01 4.813390398254990821e-01 1.168697071403773241e-01 5.186564377909336221e-01 -2.361355390478546978e-01 -9.652353969747691498e-02 2.696214710385986396e-02 6.604921060264895560e-02 -3.919626790415716711e-01 5.616601930211266580e-02 0.000000000000000000e+00 0.000000000000000000e+00 0.000000000000000000e+00 8.275624625885234579e-15 1.143902895296279769e-15 0.000000000000000000e+00 9.766085725933205964e-15 4.283363245226999908e-15 0.000000000000000000e+00 2.457559701126069455e-15 -2.616282810977048281e-15 7.871780697492085518e-16 0.000000000000000000e+00 0.000000000000000000e+00 0.000000000000000000e+00 0.000000000000000000e+00 6.066989810224161568e-16 3.360046161002944483e-15 0.000000000000000000e+00 2.778566127898353470e-16 1.914064834843220702e-15 2.457559701126069455e-15 -2.616282810977048281e-15 7.871780697492085518e-16 0.000000000000000000e+00 9.018230309512313325e-16 9.552232452736061265e-16 0.000000000000000000e+00 3.600994550526053113e-16 1.089041938216907017e-15 0.000000000000000000e+00 -4.997607346171625735e-16 9.321446077377249646e-16 2.457559701126069455e-15 -2.616282810977048281e-15 7.871780697492085518e-16 0.000000000000000000e+00 0.000000000000000000e+00 0.000000000000000000e+00 0.000000000000000000e+00 -1.588408963849208230e-15 -3.161092009460983068e-16 0.000000000000000000e+00 2.328479495176463170e-16 2.032708078931552000e-15 2.457559701126069455e-15 -2.616282810977048281e-15 7.871780697492085518e-16 0.000000000000000000e+00 0.000000000000000000e+00 0.000000000000000000e+00 0.000000000000000000e+00 3.297742194683596290e-16 1.047817342534502109e-16 0.000000000000000000e+00 -1.720608646543128894e-15 4.643422606047070019e-16 -1.898842561681802002e-02 2.396121715734272559e-02 1.969578238347557270e-02 -1.789352219550501694e-02 5.251917879242706810e-02 1.500624224771339790e-02 4.345401770593153301e-02 8.434072249851033709e-02 -1.733363455700639710e-01 -5.616441492887333520e-02 -6.523586816253858223e-02 9.314427370596845002e-02 0.000000000000000000e+00 0.000000000000000000e+00 0.000000000000000000e+00 -4.553778189919898219e-15 -1.165600426205885291e-15 0.000000000000000000e+00 -4.281792500360810037e-15 -1.873666605622967553e-15 0.000000000000000000e+00 -3.888956052916828196e-16 1.712856596261437410e-16 6.201984659662126932e-16 0.000000000000000000e+00 0.000000000000000000e+00 0.000000000000000000e+00 0.000000000000000000e+00 -3.849212454703005541e-16 2.273130652370276361e-15 0.000000000000000000e+00 -9.091101767240606982e-16 -5.309685446071919319e-16 -3.888956052916828196e-16 1.712856596261437410e-16 6.201984659662126932e-16 0.000000000000000000e+00 7.073328716148487344e-16 -7.980227577733085470e-16 0.000000000000000000e+00 1.342509701327068507e-16 -1.615456846554696145e-15 0.000000000000000000e+00 -3.453146069419387361e-16 9.043048690672471507e-16 -3.888956052916828196e-16 1.712856596261437410e-16 6.201984659662126932e-16 0.000000000000000000e+00 0.000000000000000000e+00 0.000000000000000000e+00 0.000000000000000000e+00 1.103825156987147440e-15 -1.798477482668804695e-16 0.000000000000000000e+00 -1.531300604809277438e-15 -1.000750529696554836e-15 -3.888956052916828196e-16 1.712856596261437410e-16 6.201984659662126932e-16 0.000000000000000000e+00 0.000000000000000000e+00 0.000000000000000000e+00 0.000000000000000000e+00 -2.617481547303044311e-16 -4.474682368832040880e-15 0.000000000000000000e+00 6.690690751380614188e-16 1.498623794023973602e-16
3.000000031912939562e+02 -8.455869275202074534e-05 1.345302924204192473e-02 -4.542100905575826436e-03 -5.971682572238500714e-02 -3.173223601961391860e-02 -3.925088954929577267e-02 -4.549038113323548155e-02 2.317895366009494786e-03 1.468758174236289328e-02 3.887922690594425995e-02 5.793578552157167827e-02 1.663769580158010880e-03 6.711290272492957849e-03 2.821436709908615656e-02 -6.205785411300975690e-02 -4.427160618481282978e-03 3.669669209306850033e-02 -2.062372130371079026e-02 -2.143892211434772835e-02 7.104541247517867641e-02 2.676197441899374682e-02 1.287815448710729303e-02 -4.920587777505849858e-02 -7.998058607419098257e-03 -9.448012010676446262e-03 3.300891368039325646e-02 -1.594034300275992255e-03 2.400058935129289594e-03 7.743824772432403476e-03 -2.873205103881318681e-03 -3.988708935495599919e-03 1.383806462181408521e-02 -2.154685532202636170e-04 -4.556647596874936236e-05 7.576793942191601718e-04 -6.726025005078193350e-04 -1.931873774075053285e-02 3.892333714266456302e-02 -3.514468967052688381e-02 2.868543624135219683e-02 -1.016997311329337871e-02 -4.486715513398053384e-02 -3.754064949544993340e-02 -2.115794639797122789e-01 3.748093451832005263e-01 1.641211397988375231e-01 4.200294356948332530e-01 -2.951592228509862803e-01 -1.879233684598668463e-01 4.076128957787983342e-02 3.733743194465938275e-02 -4.250921055936005000e-01 5.608749910977262748e-02 0.000000000000000000e+00 0.000000000000000000e+00 0.000000000000000000e+00 7.047713077567573164e-15 2.370516161033637357e-15 0.000000000000000000e+00 6.066738679695584779e-15 3.623005274441706314e-15 0.000000000000000000e+00 -2.423277592466945786e-16 -2.379308637643209267e-15 9.438179756681643887e-16 0.000000000000000000e+00 0.000000000000000000e+00 0.000000000000000000e+00 0.000000000000000000e+00 8.121773205726276280e-16 1.764143773450539149e-15 0.000000000000000000e+00 4.444663216928441026e-16 1.062167042908220383e-16 -2.423277592466945786e-16 -2.379308637643209267e-15 9.438179756681643887e-16 0.000000000000000000e+00 6.046811745216680586e-16 1.689357471322707894e-15 0.000000000000000000e+00 -1.043960401959005437e-16 9.390847140071838468e-16 0.000000000000000000e+00 -6.317344671480567048e-16 1.584536424684288360e-15 -2.423277592466945786e-16 -2.379308637643209267e-15 9.438179756681643887e-16 0.000000000000000000e+00 0.000000000000000000e+00 0.000000000000000000e+00 0.000000000000000000e+00 -2.442056111484889839e-15 5.525474313031363338e-16 0.000000000000000000e+00 3.676545782405372905e-16 1.720000292838011012e-16 -2.423277592466945786e-16 -2.379308637643209267e-15 9.438179756681643887e-16 0.000000000000000000e+00 0.000000000000000000e+00 0.000000000000000000e+00 0.000000000000000000e+00 -6.050102844844292977e-16 -3.532369335821249334e-16 0.000000000000000000e+00 -1.133914974353001737e-15 4.416725358575732276e-16 -4.692128640891783664e-02 1.832389730522739069e-02 -6.334517645552994319e-03 2.461191655861902014e-02 -1.173828984889861531e-02 3.698866383393238644e-02 -7.401039520885344114e-02 3.079635679878529181e-02 -1.141608126471104628e-01 -3.136724938975421484e-01 -1.067135772165636876e-01 2.219276761773675832e-01 0.000000000000000000e+00 0.000000000000000000e+00 0.000000000000000000e+00 -2.441584480110686364e-15 -7.136137206846223972e-16 0.000000000000000000e+00 -1.493809043384994537e-15 -4.000823907292449595e-16 0.000000000000000000e+00 -7.793084747204214972e-16 -2.067048336561918448e-16 2.407142827636955312e-16 0.000000000000000000e+00 0.000000000000000000e+00 0.000000000000000000e+00 0.000000000000000000e+00 -3.341653175790878118e-16 1.608642928757046805e-15 0.000000000000000000e+00 -7.932799041011424371e-17 9.296816683082709979e-17 -7.793084747204214972e-16 -2.067048336561918448e-16 2.407142827636955312e-16 0.000000000000000000e+00 3.660419956124135404e-16 -1.257184645311314885e-15 0.000000000000000000e+00 2.810559245035824241e-16 -2.182712067720113980e-16 0.000000000000000000e+00 8.362499487243238986e-16 6.736242328648213628e-16 -7.793084747204214972e-16 -2.067048336561918448e-16 2.407142827636955312e-16 0.000000000000000000e+00 0.000000000000000000e+00 0.000000000000000000e+00 0.000000000000000000e+00 4.184684874831430286e-16 1.156355577254127564e-15 0.000000000000000000e+00 -6.428441003431833470e-16 -2.532709174832383368e-16 -7.793084747204214972e-16 -2.067048336561918448e-16 2.407142827636955312e-16 0.000000000000000000e+00 0.000000000000000000e+00 0.000000000000000000e+00 0.000000000000000000e+00 6.367851513858068667e-16 -2.749602782388181178e-15 0.000000000000000000e+00 1.250387339927155082e-15 -1.802078859282062913e-15
2.999969696887731629e+02 -6.974411246055199458e-04 7.898092756694464686e-03 -2.083646762613333356e-02 -1.060393579875678199e-01 -9.275929358543417991e-02 -1.394643950372019374e-02 1.520169061242839306e-02 1.088377398724948153e-01 3.753275867778197751e-03 1.108498988322561413e-02 4.840751074172012364e-02 6.422438515949596347e-03 -2.018685614167310335e-02 -1.622528257065854532e-02 -6.383711951871878787e-02 3.793278344458885648e-02 1.055317472911179721e-01 -3.412113126135218888e-02 -2.996462894623127399e-02 7.960587012128594875e-02 2.244451867016562102e-02 2.679726819064409682e-02 -6.320258319734371744e-02 -4.979272285990332669e-02 -1.237026489004569747e-02 7.740784785454300765e-02 -1.211700801961572947e-02 5.810972173222366324e-04 1.927187397748549025e-02 -2.025685510954519652e-02 -8.517060956618792769e-03 3.227387426370669637e-02 1.969079823580264577e-04 1.282539553508607513e-03 3.741163274999636384e-04 2.560038287751698494e-03 -1.120535765060505680e-02 5.182705420448047162e-02 -8.588982647706569148e-03 7.304924874006616178e-03 -2.277601797015690183e-02 -3.803253941030303870e-02 -3.747706471882243651e-02 -1.380573865291152558e-01 9.674380300113415154e-02 1.217691542197346655e-01 1.376316787484727633e-01 -2.614829495000238202e-01 -1.193528558516452759e-01 8.684481241959554620e-02 -6.834696150629293587e-02 -3.122561460084419815e-01 -1.169714399213658829e-02 0.000000000000000000e+00 0.000000000000000000e+00 0.000000000000000000e+00 9.347058676911921860e-16 1.356674742886888300e-15 0.000000000000000000e+00 5.913530500657324047e-16 1.709551673938725245e-16 0.000000000000000000e+00 -6.018789227140441212e-16 1.395190827335308963e-16 9.744565759157950711e-17 0.000000000000000000e+00 0.000000000000000000e+00 0.000000000000000000e+00 0.000000000000000000e+00 2.669118019340477705e-16 3.975147944608704546e-17 0.000000000000000000e+00 3.990492030272860591e-16 -2.092106090736384994e-15 -6.018789227140441212e-16 1.395190827335308963e-16 9.744565759157950711e-17 0.000000000000000000e+00 5.712922251603085206e-16 1.351275136843629100e-15 0.000000000000000000e+00 1.525596985708717154e-16 -9.620670846929258386e-16 0.000000000000000000e+00 -4.893141869997543021e-16 1.061789460162563073e-15 -6.018789227140441212e-16 1.395190827335308963e-16 9.744565759157950711e-17 0.000000000000000000e+00 0.000000000000000000e+00 0.000000000000000000e+00 0.000000000000000000e+00 -9.877371462915063838e-16 1.048646662007867546e-15 0.000000000000000000e+00 4.690424731474055959e-16 -1.778813681481342271e-15 -6.018789227140441212e-16 1.395190827335308963e-16 9.744565759157950711e-17 0.000000000000000000e+00 0.000000000000000000e+00 0.000000000000000000e+00 0.000000000000000000e+00 -8.805870158547229240e-16 -5.608607997417216742e-16 0.000000000000000000e+00 -5.423691922737297674e-16 -1.093063270731991488e-16 -4.765815202280268559e-02 3.433182706103240448e-03 -2.466731620583913903e-02 5.841615111422526763e-02 -6.392506452650868753e-02 2.042324207178735848e-02 -1.391730154563597111e-01 -2.379765057169466388e-02 3.581183315387707206e-02 -3.288355576678432812e-01 -8.249419668784224724e-02 2.047698399480210041e-01 0.000000000000000000e+00 0.000000000000000000e+00 0.000000000000000000e+00 -3.688779973712438549e-16 2.312103555906473747e-16 0.000000000000000000e+00 4.042333663577287913e-17 1.449261498516159079e-15 0.000000000000000000e+00 -7.610720578463543935e-16 -2.622657813973704487e-16 -8.370666320998327554e-17 0.000000000000000000e+00 0.000000000000000000e+00 0.000000000000000000e+00 0.000000000000000000e+00 6.675580177757675365e-17 -1.960356916654646282e-17 0.000000000000000000e+00 7.562729334760994323e-16 2.182216761647735316e-16 -7.610720578463543935e-16 -2.622657813973704487e-16 -8.370666320998327554e-17 0.000000000000000000e+00 -2.427276031344429012e-16 -4.461998923085116351e-17 0.000000000000000000e+00 -5.391721768044396909e-16 1.397343924733525967e-15 0.000000000000000000e+00 8.593474311587527747e-16 3.722897082319240650e-17 -7.610720578463543935e-16 -2.622657813973704487e-16 -8.370666320998327554e-17 0.000000000000000000e+00 0.000000000000000000e+00 0.000000000000000000e+00 0.000000000000000000e+00 -4.207824608515347275e-16 8.023137437797811080e-16 0.000000000000000000e+00 1.241613355829225795e-15 8.114319029211239339e-16 -7.610720578463543935e-16 -2.622657813973704487e-16 -8.370666320998327554e-17 0.000000000000000000e+00 0.000000000000000000e+00 0.000000000000000000e+00 0.000000000000000000e+00 1.369558130462990013e-15 1.226137080988935727e-15 0.000000000000000000e+00 -1.333057601087270863e-16 -2.257033833462426886e-15
